<?xml version="1.0" encoding="utf-8"?>
<!-- Generator: Adobe Illustrator 27.5.0, SVG Export Plug-In . SVG Version: 6.00 Build 0)  -->
<svg version="1.1" xmlns="http://www.w3.org/2000/svg" xmlns:xlink="http://www.w3.org/1999/xlink" x="0px" y="0px"
	 viewBox="0 0 750 500" style="enable-background:new 0 0 750 500;" xml:space="preserve">
<g id="Background_complete">
	<path style="fill:#E0E0E0;" d="M291.698,185.636c-4.454,6.782-7.45,14.233-9.045,21.918l-12.239,1.153l-0.001,23.703l12.241,1.153
		c1.594,7.683,4.591,15.134,9.045,21.918l-7.818,9.442l16.761,16.761l9.442-7.817c6.784,4.454,14.234,7.45,21.917,9.044
		l1.152,12.241l23.703-0.001l1.153-12.238c7.684-1.596,15.135-4.592,21.919-9.045l9.442,7.817l16.761-16.761l-7.817-9.443
		c4.453-6.784,7.449-14.234,9.044-21.917l12.238-1.153l0.002-23.703l-12.239-1.154c-1.596-7.683-4.592-15.133-9.046-21.916
		l7.817-9.443l-16.761-16.76l-9.442,7.817c-6.785-4.454-14.235-7.451-21.917-9.046l-1.153-12.24l-23.703,0.001l-1.152,12.239
		c-7.684,1.596-15.134,4.59-21.917,9.045l-9.443-7.818l-16.761,16.761L291.698,185.636z M367.695,197.868
		c12.529,12.531,12.53,32.848,0,45.379c-12.532,12.532-32.85,12.531-45.38,0.001c-12.531-12.531-12.53-32.848,0.001-45.38
		C334.847,185.339,355.164,185.338,367.695,197.868z"/>
	<path style="fill:#E0E0E0;" d="M183.555,144.195c-2.507,3.817-4.193,8.01-5.091,12.335l-6.888,0.649l-0.001,13.34l6.889,0.649
		c0.897,4.324,2.584,8.517,5.091,12.336l-4.4,5.314l9.433,9.433l5.314-4.399c3.818,2.507,8.011,4.193,12.335,5.09l0.648,6.889
		l13.34-0.001l0.649-6.888c4.325-0.898,8.518-2.584,12.336-5.091l5.314,4.399l9.433-9.433l-4.399-5.314
		c2.506-3.818,4.192-8.011,5.09-12.335l6.888-0.649l0.001-13.34l-6.888-0.649c-0.898-4.324-2.585-8.517-5.091-12.334l4.399-5.314
		l-9.433-9.433l-5.314,4.399c-3.818-2.507-8.011-4.194-12.335-5.091l-0.649-6.889l-13.34,0.001l-0.648,6.889
		c-4.324,0.898-8.517,2.583-12.335,5.09l-5.315-4.4l-9.433,9.433L183.555,144.195z M226.327,151.079
		c7.052,7.052,7.052,18.487,0,25.54c-7.053,7.053-18.488,7.052-25.54,0c-7.053-7.053-7.052-18.487,0-25.54
		C207.84,144.028,219.274,144.027,226.327,151.079z"/>
	<path style="fill:#E0E0E0;" d="M219.544,86.221c-1.253,1.908-2.095,4.004-2.544,6.165l-3.443,0.324l0,6.667l3.443,0.324
		c0.449,2.161,1.291,4.257,2.544,6.165l-2.199,2.656l4.715,4.714l2.656-2.199c1.908,1.253,4.004,2.096,6.165,2.544l0.324,3.443
		l6.667,0l0.324-3.442c2.161-0.449,4.257-1.292,6.165-2.544l2.656,2.199l4.715-4.714l-2.199-2.656
		c1.253-1.908,2.095-4.004,2.544-6.165l3.442-0.324l0.001-6.667l-3.443-0.325c-0.449-2.161-1.292-4.257-2.544-6.165l2.199-2.656
		l-4.714-4.714l-2.656,2.199c-1.908-1.253-4.004-2.096-6.165-2.545l-0.324-3.443l-6.667,0l-0.324,3.443
		c-2.161,0.449-4.257,1.291-6.165,2.544l-2.656-2.199l-4.715,4.715L219.544,86.221z M240.921,89.662
		c3.524,3.525,3.525,9.24,0,12.764c-3.525,3.525-9.24,3.525-12.764,0c-3.525-3.525-3.525-9.239,0-12.764
		C231.681,86.137,237.395,86.137,240.921,89.662z"/>
	<g>
		<g>
			<path style="fill:#E6E6E6;" d="M165.565,282.327l-43.025,8.465c-1.903,0.374-3.749-0.865-4.124-2.768l-11.262-57.24
				c-0.374-1.903,0.865-3.749,2.768-4.123l43.025-8.465c1.903-0.374,3.749,0.865,4.124,2.768l11.262,57.24
				C168.707,280.106,167.468,281.952,165.565,282.327z"/>
		</g>
		<path style="fill:#F0F0F0;" d="M149.002,237.904l-27.962,5.501c-0.962,0.189-1.895-0.437-2.084-1.399l-0.153-0.776
			c-0.189-0.962,0.437-1.895,1.399-2.084l27.962-5.501c0.962-0.189,1.895,0.437,2.084,1.398l0.153,0.777
			C150.589,236.782,149.963,237.715,149.002,237.904z"/>
		<path style="fill:#F0F0F0;" d="M151.145,248.799l-27.962,5.502c-0.962,0.189-1.894-0.437-2.084-1.399l-0.153-0.777
			c-0.189-0.962,0.437-1.894,1.399-2.084l27.962-5.502c0.962-0.189,1.895,0.437,2.084,1.399l0.153,0.777
			C152.733,247.677,152.107,248.61,151.145,248.799z"/>
		<path style="fill:#F0F0F0;" d="M153.289,259.694l-27.962,5.502c-0.962,0.189-1.895-0.437-2.084-1.399l-0.153-0.777
			c-0.189-0.962,0.437-1.895,1.399-2.084l27.962-5.502c0.962-0.189,1.895,0.437,2.084,1.399l0.153,0.776
			C154.877,258.572,154.251,259.505,153.289,259.694z"/>
		<path style="fill:#F0F0F0;" d="M140.558,273.516l-13.087,2.575c-0.962,0.189-1.894-0.437-2.084-1.398l-0.153-0.777
			c-0.189-0.962,0.437-1.895,1.399-2.084l13.087-2.575c0.962-0.189,1.895,0.437,2.084,1.399l0.153,0.777
			C142.145,272.394,141.519,273.327,140.558,273.516z"/>
	</g>
	<g>
		<g>
			<path style="fill:#E6E6E6;" d="M207.447,339.934l-27.23-3.251c-1.926-0.23-3.301-1.977-3.071-3.903l4.414-36.971
				c0.23-1.926,1.977-3.3,3.903-3.071l27.23,3.251c1.926,0.23,3.301,1.977,3.071,3.903l-4.414,36.971
				C211.12,338.789,209.373,340.164,207.447,339.934z"/>
		</g>
		<path style="fill:#F0F0F0;" d="M206.902,307.966l-18.628-2.224c-0.806-0.096-1.381-0.827-1.285-1.633l0,0
			c0.096-0.806,0.827-1.381,1.633-1.285l18.628,2.224c0.806,0.096,1.381,0.827,1.285,1.633v0
			C208.439,307.487,207.707,308.062,206.902,307.966z"/>
		<path style="fill:#F0F0F0;" d="M206.01,315.431l-18.628-2.224c-0.806-0.096-1.381-0.828-1.285-1.633l0,0
			c0.096-0.806,0.827-1.381,1.633-1.285l18.628,2.224c0.806,0.096,1.381,0.827,1.285,1.633l0,0
			C207.547,314.952,206.816,315.528,206.01,315.431z"/>
		<path style="fill:#F0F0F0;" d="M205.119,322.897l-18.628-2.224c-0.806-0.096-1.381-0.827-1.285-1.633l0,0
			c0.096-0.806,0.827-1.381,1.633-1.285l18.628,2.224c0.806,0.096,1.381,0.827,1.285,1.633l0,0
			C206.656,322.418,205.925,322.993,205.119,322.897z"/>
		<path style="fill:#F0F0F0;" d="M194.035,329.146l-8.436-1.007c-0.806-0.096-1.381-0.827-1.285-1.633l0,0
			c0.096-0.806,0.827-1.381,1.633-1.285l8.436,1.007c0.806,0.096,1.381,0.828,1.285,1.633l0,0
			C195.572,328.667,194.841,329.242,194.035,329.146z"/>
	</g>
	<g>
		<g>
			<path style="fill:#E6E6E6;" d="M658.121,225.114L625.926,212.9c-1.813-0.688-2.726-2.716-2.038-4.529l16.403-43.235
				c0.688-1.813,2.716-2.725,4.529-2.038l32.196,12.215c1.813,0.688,2.726,2.716,2.038,4.529l-16.403,43.235
				C661.963,224.89,659.935,225.802,658.121,225.114z"/>
		</g>
		<path style="fill:#F0F0F0;" d="M666.383,187.47l-21.67-8.222c-0.759-0.288-1.141-1.136-0.853-1.895l0.212-0.559
			c0.288-0.759,1.136-1.141,1.895-0.853l21.67,8.222c0.759,0.288,1.141,1.136,0.853,1.895l-0.212,0.559
			C667.99,187.376,667.142,187.758,666.383,187.47z"/>
		<path style="fill:#F0F0F0;" d="M663.173,195.931l-21.67-8.221c-0.759-0.288-1.141-1.136-0.853-1.895l0.212-0.559
			c0.288-0.759,1.136-1.141,1.895-0.853l21.67,8.221c0.759,0.288,1.141,1.136,0.853,1.895l-0.212,0.559
			C664.78,195.837,663.932,196.219,663.173,195.931z"/>
		<path style="fill:#F0F0F0;" d="M659.963,204.392l-21.67-8.221c-0.759-0.288-1.141-1.136-0.853-1.895l0.212-0.559
			c0.288-0.759,1.136-1.141,1.895-0.853l21.67,8.221c0.759,0.288,1.141,1.136,0.853,1.895l-0.212,0.559
			C661.571,204.298,660.722,204.68,659.963,204.392z"/>
		<path style="fill:#F0F0F0;" d="M645.202,208.47l-10.119-3.839c-0.759-0.288-1.141-1.136-0.853-1.895l0.212-0.559
			c0.288-0.759,1.136-1.141,1.895-0.853l10.119,3.839c0.759,0.288,1.141,1.136,0.853,1.895l-0.212,0.559
			C646.81,208.376,645.961,208.758,645.202,208.47z"/>
	</g>
	<g>
		<path style="fill:#E0E0E0;" d="M397.751,83.073h-10.145c-0.868,0-1.571-0.704-1.571-1.571V68.92c0-0.868,0.703-1.571,1.571-1.571
			h10.145c0.868,0,1.571,0.703,1.571,1.571v12.581C399.322,82.369,398.618,83.073,397.751,83.073z"/>
		<path style="fill:#E0E0E0;" d="M417.735,83.073H407.59c-0.868,0-1.571-0.704-1.571-1.571v-24.81c0-0.868,0.704-1.571,1.571-1.571
			h10.145c0.868,0,1.571,0.704,1.571,1.571v24.81C419.306,82.369,418.603,83.073,417.735,83.073z"/>
		<path style="fill:#E0E0E0;" d="M439.249,83.423h-10.145c-0.868,0-1.571-0.703-1.571-1.571V44.615c0-0.868,0.703-1.571,1.571-1.571
			h10.145c0.868,0,1.571,0.703,1.571,1.571v37.237C440.82,82.719,440.117,83.423,439.249,83.423z"/>
	</g>
	<path style="fill:#E0E0E0;" d="M476.598,274.398c-2.412,3.673-4.034,7.708-4.898,11.87l-6.628,0.624l-0.001,12.836l6.629,0.624
		c0.863,4.161,2.486,8.195,4.898,11.87l-4.234,5.113l9.077,9.077l5.113-4.233c3.674,2.412,7.708,4.034,11.869,4.898l0.624,6.629
		l12.836-0.001l0.624-6.627c4.161-0.865,8.196-2.487,11.87-4.898l5.113,4.233l9.077-9.077l-4.233-5.114
		c2.411-3.674,4.034-7.708,4.898-11.869l6.628-0.624l0.001-12.836l-6.628-0.625c-0.864-4.161-2.487-8.195-4.899-11.868l4.233-5.114
		l-9.077-9.076l-5.113,4.233c-3.674-2.412-7.709-4.035-11.869-4.899l-0.624-6.628l-12.836,0.001l-0.624,6.628
		c-4.161,0.864-8.195,2.486-11.869,4.898l-5.114-4.234l-9.077,9.077L476.598,274.398z M517.754,281.023
		c6.785,6.786,6.786,17.789,0,24.575c-6.787,6.786-17.79,6.786-24.575,0c-6.786-6.786-6.786-17.788,0-24.575
		C499.965,274.237,510.968,274.237,517.754,281.023z"/>
	<path style="fill:#E0E0E0;" d="M556.069,304.777c-1.138,1.733-1.904,3.637-2.311,5.601l-3.128,0.294l0,6.057l3.128,0.295
		c0.407,1.963,1.173,3.867,2.311,5.601l-1.998,2.413l4.283,4.283l2.413-1.997c1.734,1.138,3.637,1.904,5.6,2.311l0.295,3.128
		l6.057,0l0.295-3.127c1.964-0.408,3.867-1.173,5.601-2.311l2.413,1.997l4.283-4.283l-1.997-2.413
		c1.138-1.733,1.903-3.637,2.311-5.601l3.127-0.295l0-6.057l-3.128-0.295c-0.408-1.963-1.174-3.867-2.312-5.6l1.997-2.413
		l-4.283-4.283l-2.413,1.997c-1.734-1.138-3.637-1.904-5.601-2.312l-0.295-3.128l-6.057,0l-0.295,3.128
		c-1.963,0.408-3.867,1.173-5.6,2.311l-2.413-1.998l-4.283,4.283L556.069,304.777z M575.489,307.903
		c3.202,3.202,3.202,8.394,0,11.596c-3.202,3.202-8.394,3.202-11.596,0c-3.202-3.202-3.202-8.393,0-11.596
		C567.095,304.702,572.287,304.701,575.489,307.903z"/>
	<path style="fill:#F5F5F5;" d="M502.209,212.604c-1.138,1.733-1.904,3.637-2.311,5.601l-3.128,0.294l0,6.057l3.128,0.295
		c0.407,1.963,1.173,3.867,2.311,5.601l-1.998,2.413l4.283,4.283l2.413-1.997c1.733,1.138,3.637,1.904,5.601,2.311l0.294,3.128
		l6.057,0l0.295-3.127c1.964-0.408,3.867-1.173,5.601-2.311l2.413,1.997l4.283-4.283l-1.997-2.413
		c1.138-1.734,1.904-3.637,2.311-5.601l3.127-0.295l0-6.057l-3.128-0.295c-0.408-1.963-1.174-3.867-2.312-5.6l1.997-2.413
		l-4.283-4.283l-2.413,1.997c-1.734-1.138-3.637-1.904-5.601-2.312l-0.295-3.128l-6.057,0l-0.294,3.128
		c-1.963,0.408-3.867,1.173-5.6,2.311l-2.413-1.998l-4.283,4.283L502.209,212.604z M521.629,215.73
		c3.202,3.202,3.202,8.394,0,11.596c-3.202,3.202-8.394,3.202-11.596,0c-3.202-3.202-3.202-8.394,0-11.596
		C513.235,212.528,518.426,212.528,521.629,215.73z"/>
	<path style="fill:#F5F5F5;" d="M551.597,234.841c-2.137,3.254-3.574,6.828-4.34,10.515l-5.872,0.553l0,11.372l5.873,0.553
		c0.765,3.686,2.202,7.26,4.339,10.515l-3.751,4.53l8.041,8.041l4.53-3.75c3.255,2.137,6.829,3.574,10.515,4.339l0.553,5.873
		l11.372-0.001l0.553-5.871c3.687-0.766,7.261-2.203,10.516-4.34l4.53,3.75l8.041-8.041l-3.75-4.53
		c2.136-3.255,3.574-6.829,4.339-10.515l5.871-0.553l0.001-11.372l-5.872-0.553c-0.766-3.686-2.203-7.26-4.34-10.514l3.75-4.53
		l-8.041-8.041l-4.53,3.75c-3.255-2.137-6.829-3.575-10.515-4.34l-0.553-5.872l-11.372,0.001l-0.553,5.872
		c-3.686,0.766-7.26,2.202-10.515,4.339l-4.53-3.751l-8.041,8.041L551.597,234.841z M588.057,240.71
		c6.011,6.012,6.011,15.759,0,21.771c-6.012,6.012-15.76,6.012-21.771,0c-6.012-6.012-6.011-15.759,0-21.771
		C572.298,234.699,582.045,234.698,588.057,240.71z"/>
	<path style="fill:#F5F5F5;" d="M146.271,76.236c-1.867,2.842-3.122,5.965-3.791,9.186l-5.13,0.483l-0.001,9.934l5.13,0.483
		c0.668,3.22,1.924,6.343,3.791,9.186l-3.277,3.957l7.025,7.025l3.957-3.276c2.843,1.867,5.965,3.122,9.186,3.79l0.483,5.13
		l9.934-0.001l0.483-5.129c3.221-0.669,6.343-1.924,9.186-3.791l3.957,3.276l7.025-7.025l-3.276-3.957
		c1.866-2.843,3.122-5.965,3.79-9.186l5.129-0.483l0.001-9.934l-5.13-0.484c-0.669-3.22-1.925-6.342-3.791-9.185l3.276-3.958
		l-7.025-7.024l-3.957,3.276c-2.844-1.867-5.966-3.123-9.186-3.791l-0.483-5.13l-9.934,0l-0.483,5.13
		c-3.22,0.669-6.343,1.924-9.185,3.791l-3.958-3.276l-7.025,7.025L146.271,76.236z M178.122,81.363
		c5.251,5.252,5.251,13.767,0,19.019c-5.252,5.252-13.768,5.252-19.019,0c-5.252-5.252-5.252-13.767,0-19.019
		C164.355,76.112,172.87,76.111,178.122,81.363z"/>
	<g>
		<g>
			<g>
				<g>
					<g>
						<g>
							<path style="fill:#E0E0E0;" d="M673.734,317.179H492.988c-3.232,0-5.862-2.63-5.862-5.862V48.043
								c0-3.232,2.63-5.862,5.862-5.862h180.746c3.232,0,5.862,2.629,5.862,5.862v263.273
								C679.596,314.549,676.966,317.179,673.734,317.179z M492.988,42.432c-3.095,0-5.612,2.517-5.612,5.612v263.273
								c0,3.095,2.518,5.612,5.612,5.612h180.746c3.095,0,5.612-2.518,5.612-5.612V48.043c0-3.094-2.518-5.612-5.612-5.612H492.988z
								"/>
						</g>
					</g>
					<g>
						<g>
							<path style="fill:#E0E0E0;" d="M465.306,317.179H284.56c-3.232,0-5.862-2.63-5.862-5.862V48.043
								c0-3.232,2.629-5.862,5.862-5.862h180.747c3.232,0,5.862,2.629,5.862,5.862v263.273
								C471.168,314.549,468.538,317.179,465.306,317.179z M284.56,42.432c-3.094,0-5.612,2.517-5.612,5.612v263.273
								c0,3.095,2.518,5.612,5.612,5.612h180.747c3.095,0,5.612-2.518,5.612-5.612V48.043c0-3.094-2.518-5.612-5.612-5.612H284.56z"
								/>
						</g>
					</g>
				</g>
				<g>
					<g>
						<g>
							<path style="fill:#E0E0E0;" d="M257.012,317.179H76.266c-3.232,0-5.862-2.63-5.862-5.862V48.043
								c0-3.232,2.629-5.862,5.862-5.862h180.746c3.232,0,5.862,2.629,5.862,5.862v263.273
								C262.875,314.549,260.245,317.179,257.012,317.179z M76.266,42.432c-3.094,0-5.612,2.517-5.612,5.612v263.273
								c0,3.095,2.518,5.612,5.612,5.612h180.746c3.095,0,5.612-2.518,5.612-5.612V48.043c0-3.094-2.518-5.612-5.612-5.612H76.266z"
								/>
						</g>
					</g>
				</g>
			</g>
			<g>
				<g>
					<rect y="378.249" style="fill:#E0E0E0;" width="750" height="0.12"/>
				</g>
			</g>
		</g>
		<g>
			<rect x="653.626" y="407.625" style="fill:#EBEBEB;" width="55.729" height="0.421"/>
			<rect x="495.044" y="412.19" style="fill:#EBEBEB;" width="14.627" height="0.421"/>
			<rect x="40.645" y="394.827" style="fill:#EBEBEB;" width="72.674" height="0.421"/>
			<rect x="128.299" y="394.827" style="fill:#EBEBEB;" width="10.656" height="0.421"/>
			<rect x="173.586" y="401.931" style="fill:#EBEBEB;" width="157.613" height="0.421"/>
		</g>
	</g>
</g>
<g id="Background_simple" style="display:none;">
	<g style="display:inline;">
		<path style="fill:#407BFF;" d="M266.395,122.712c-32.085,2.559-63.024,8.008-90.464,16.554
			c-32.341,10.073-65.386,25.765-55.626,46.29c18.019,37.892,104.459,38.583,87.2,64.061c-19.549,28.859-6.439,62.712,81.283,72.126
			c166.615,17.88,368.027-86.74,311.458-144.228C565.028,141.724,436.758,109.124,266.395,122.712z"/>
		<path style="opacity:0.9;fill:#FFFFFF;" d="M266.395,122.712c-32.085,2.559-63.024,8.008-90.464,16.554
			c-32.341,10.073-65.386,25.765-55.626,46.29c18.019,37.892,104.459,38.583,87.2,64.061c-19.549,28.859-6.439,62.712,81.283,72.126
			c166.615,17.88,368.027-86.74,311.458-144.228C565.028,141.724,436.758,109.124,266.395,122.712z"/>
	</g>
</g>
<g id="Shadow">
	<g>
		<g>
			<path style="fill:#F5F5F5;" d="M629.379,460.639c0,3.387-113.889,6.132-254.379,6.132s-254.379-2.746-254.379-6.132
				c0-3.387,113.889-6.132,254.379-6.132S629.379,457.252,629.379,460.639z"/>
		</g>
	</g>
</g>
<g id="Chart">
	<g>
		<g>
			<path style="fill:#407BFF;" d="M180.542,194.194H75.363c-2.262,0-4.095-1.833-4.095-4.095v-59.093
				c0-2.261,1.833-4.095,4.095-4.095h105.179c2.261,0,4.095,1.833,4.095,4.095v59.093
				C184.637,192.361,182.804,194.194,180.542,194.194z"/>
			<path style="opacity:0.8;fill:#FFFFFF;" d="M180.542,194.194H75.363c-2.262,0-4.095-1.833-4.095-4.095v-59.093
				c0-2.261,1.833-4.095,4.095-4.095h105.179c2.261,0,4.095,1.833,4.095,4.095v59.093
				C184.637,192.361,182.804,194.194,180.542,194.194z"/>
		</g>
		<path style="fill:none;stroke:#263238;stroke-width:0.5;stroke-miterlimit:10;" d="M88.313,164.284
			c0.492-0.443,13.761-13.544,13.761-13.544l13.087,6.441l12.792-15.051l13.087,18.858l12.764-8.329"/>
		<rect x="86.277" y="170.182" style="fill:#407BFF;" width="6.135" height="13.595"/>
		<rect x="98.909" y="161.198" style="fill:#407BFF;" width="6.135" height="22.578"/>
		<rect x="111.782" y="163.469" style="fill:#407BFF;" width="6.136" height="20.308"/>
		<rect x="124.885" y="150.739" style="fill:#407BFF;" width="6.136" height="33.037"/>
		<rect x="138.128" y="168.257" style="fill:#407BFF;" width="6.136" height="15.519"/>
		<path style="fill:#407BFF;" d="M92.641,162.744c0,1.821-1.476,3.296-3.296,3.296c-1.821,0-3.296-1.476-3.296-3.296
			c0-1.821,1.476-3.296,3.296-3.296C91.165,159.447,92.641,160.923,92.641,162.744z"/>
		<path style="fill:#407BFF;" d="M105.273,150.739c0,1.82-1.476,3.296-3.296,3.296c-1.82,0-3.296-1.476-3.296-3.296
			c0-1.821,1.476-3.296,3.296-3.296C103.797,147.443,105.273,148.919,105.273,150.739z"/>
		<path style="fill:#407BFF;" d="M118.457,156.151c0,1.821-1.476,3.296-3.296,3.296c-1.821,0-3.296-1.476-3.296-3.296
			c0-1.82,1.476-3.296,3.296-3.296C116.982,152.855,118.457,154.331,118.457,156.151z"/>
		<path style="fill:#407BFF;" d="M131.249,142.13c0,1.82-1.476,3.296-3.296,3.296c-1.82,0-3.296-1.476-3.296-3.296
			c0-1.821,1.476-3.296,3.296-3.296C129.773,138.833,131.249,140.309,131.249,142.13z"/>
		<path style="fill:#407BFF;" d="M144.336,160.987c0,1.82-1.476,3.296-3.296,3.296c-1.821,0-3.296-1.476-3.296-3.296
			c0-1.821,1.476-3.296,3.296-3.296C142.86,157.691,144.336,159.167,144.336,160.987z"/>
		<rect x="151.242" y="160.477" style="fill:#407BFF;" width="6.136" height="23.3"/>
		<rect x="98.909" y="161.198" style="opacity:0.3;" width="6.135" height="22.578"/>
		<rect x="124.885" y="150.739" style="opacity:0.3;" width="6.136" height="33.037"/>
		<rect x="151.242" y="160.477" style="opacity:0.3;" width="6.136" height="23.3"/>
		<rect x="164.815" y="168.257" style="fill:#407BFF;" width="6.135" height="15.519"/>
		
			<line style="fill:none;stroke:#263238;stroke-width:0.5;stroke-miterlimit:10;" x1="153.803" y1="152.658" x2="167.883" y2="160.477"/>
		<path style="fill:#407BFF;" d="M157.835,152.658c0,1.82-1.476,3.296-3.296,3.296s-3.296-1.476-3.296-3.296
			c0-1.821,1.476-3.296,3.296-3.296S157.835,150.838,157.835,152.658z"/>
		<circle style="fill:#407BFF;" cx="167.883" cy="160.477" r="3.296"/>
	</g>
</g>
<g id="Box">
	<g>
		<circle style="fill:#FFFFFF;stroke:#263238;stroke-miterlimit:10;" cx="651.671" cy="364.782" r="57.094"/>
		<g>
			<rect x="623.83" y="354.36" style="fill:#407BFF;" width="56.502" height="39.901"/>
			<rect x="623.83" y="354.36" style="opacity:0.3;" width="26.757" height="39.901"/>
			<polygon style="fill:#407BFF;" points="623.83,354.36 614.631,369.81 641.2,369.81 650.587,354.36 			"/>
			<polygon style="fill:#407BFF;" points="650.587,354.36 660.472,369.81 688.712,369.81 680.332,354.36 			"/>
			<polygon style="opacity:0.3;" points="650.587,354.36 660.472,369.81 688.712,369.81 680.332,354.36 			"/>
			<g>
				<g>
					<path style="fill:#263238;" d="M642.046,344.707c-2.29-3.215-4.58-6.431-6.87-9.646c-0.278-0.39-0.928-0.016-0.648,0.378
						c2.29,3.215,4.58,6.431,6.87,9.646C641.676,345.475,642.326,345.101,642.046,344.707L642.046,344.707z"/>
				</g>
			</g>
			<g>
				<g>
					<path style="fill:#263238;" d="M651.461,344.427c-0.09-5.242-0.179-10.484-0.269-15.726c-0.008-0.482-0.758-0.484-0.75,0
						c0.09,5.242,0.179,10.484,0.269,15.726C650.72,344.909,651.47,344.911,651.461,344.427L651.461,344.427z"/>
				</g>
			</g>
			<g>
				<g>
					<path style="fill:#263238;" d="M660.88,344.754c1.682-2.995,3.364-5.989,5.046-8.984c0.237-0.421-0.411-0.8-0.648-0.378
						c-1.682,2.994-3.364,5.989-5.046,8.983C659.996,344.797,660.643,345.175,660.88,344.754L660.88,344.754z"/>
				</g>
			</g>
			<g>
				<g>
					<path style="fill:#263238;" d="M666.92,333.244c-0.021-0.021-0.042-0.042-0.063-0.063c-0.034-0.036-0.074-0.062-0.121-0.078
						c-0.045-0.023-0.093-0.034-0.145-0.032c-0.052-0.002-0.1,0.009-0.144,0.032c-0.046,0.015-0.087,0.041-0.121,0.078
						c-0.02,0.025-0.039,0.051-0.059,0.076c-0.034,0.059-0.051,0.122-0.051,0.189c0.005,0.033,0.009,0.066,0.013,0.1
						c0.018,0.064,0.05,0.119,0.096,0.165c0.021,0.021,0.042,0.042,0.063,0.063c0.034,0.037,0.074,0.062,0.121,0.078
						c0.045,0.023,0.093,0.034,0.144,0.032c0.052,0.002,0.1-0.009,0.144-0.032c0.047-0.015,0.087-0.041,0.121-0.078
						c0.019-0.025,0.039-0.051,0.059-0.076c0.034-0.059,0.051-0.122,0.051-0.189c-0.004-0.033-0.009-0.066-0.013-0.1
						C666.999,333.346,666.967,333.291,666.92,333.244L666.92,333.244z"/>
				</g>
			</g>
		</g>
	</g>
</g>
<g id="Character_1">
	<g>
		<g>
			<g>
				<path style="fill:#407BFF;" d="M542.776,187.217l11.213,52.8c0.51,2.404-1.975,4.338-4.18,3.253l-39.165-19.274
					c-1.711-0.842-2.182-3.063-0.961-4.527l27.952-33.527C539.208,184.055,542.265,184.813,542.776,187.217z"/>
				<path style="opacity:0.3;" d="M542.776,187.217l11.213,52.8c0.51,2.404-1.975,4.338-4.18,3.253l-39.165-19.274
					c-1.711-0.842-2.182-3.063-0.961-4.527l27.952-33.527C539.208,184.055,542.265,184.813,542.776,187.217z"/>
				<g>
					<path style="fill:#407BFF;" d="M545.224,231.121l-4.35-30.174c18.664-2.69,34.755-14.386,43.046-31.286
						c13.825-28.18,2.146-62.353-26.034-76.177c-28.18-13.825-62.353-2.146-76.177,26.034c-5.984,12.197-7.411,26.146-4.018,39.277
						l-29.517,7.626c-5.211-20.176-3.022-41.601,6.166-60.33c21.228-43.271,73.702-61.205,116.974-39.977
						c43.271,21.228,61.204,73.702,39.976,116.974C598.56,209.037,573.862,226.993,545.224,231.121z"/>
				</g>
				<g style="opacity:0.3;">
					<path d="M545.224,231.121l-4.35-30.174c18.664-2.69,34.755-14.386,43.046-31.286c13.825-28.18,2.146-62.353-26.034-76.177
						c-28.18-13.825-62.353-2.146-76.177,26.034c-5.984,12.197-7.411,26.146-4.018,39.277l-29.517,7.626
						c-5.211-20.176-3.022-41.601,6.166-60.33c21.228-43.271,73.702-61.205,116.974-39.977
						c43.271,21.228,61.204,73.702,39.976,116.974C598.56,209.037,573.862,226.993,545.224,231.121z"/>
				</g>
			</g>
			<g>
				<g>
					<g>
						
							<ellipse transform="matrix(0.9628 -0.2701 0.2701 0.9628 -17.7895 150.1528)" style="fill:#407BFF;" cx="536.608" cy="139.705" rx="35.333" ry="35.333"/>
						
							<ellipse transform="matrix(0.9628 -0.2701 0.2701 0.9628 -17.7895 150.1528)" style="opacity:0.3;" cx="536.608" cy="139.705" rx="35.333" ry="35.333"/>
						
							<ellipse transform="matrix(0.7825 -0.6227 0.6227 0.7825 30.5126 362.9359)" style="fill:#407BFF;" cx="534.752" cy="137.793" rx="35.333" ry="35.333"/>
						
							<ellipse transform="matrix(0.5136 -0.858 0.858 0.5136 141.8593 525.842)" style="fill:#FFFFFF;" cx="534.752" cy="137.793" rx="29.354" ry="29.354"/>
						<g>
							<path d="M520.663,158.621l3.899-5.777c0.114,0.077,0.229,0.153,0.345,0.227l-3.757,5.87
								C520.987,158.837,520.824,158.73,520.663,158.621z M512.879,150.197c-0.096-0.17-0.191-0.341-0.283-0.514l6.148-3.282
								c0.065,0.121,0.131,0.241,0.198,0.36L512.879,150.197z M531.953,162.784l0.765-6.927l0.432,0.044l-0.636,6.94
								C532.326,162.824,532.139,162.805,531.953,162.784z M509.616,138.617c-0.006-0.193-0.01-0.386-0.013-0.579l6.97-0.069
								l0.008,0.42L509.616,138.617z M543.878,161.222l-2.537-6.491l0.392-0.157l2.778,6.392l-0.166,0.069
								C544.233,161.081,544.056,161.152,543.878,161.222z M512.112,126.855c0.084-0.175,0.171-0.349,0.258-0.521l6.208,3.169
								c-0.063,0.122-0.124,0.247-0.184,0.371L512.112,126.855z M548.508,149.675c0.086-0.099,0.171-0.2,0.255-0.301l5.382,4.429
								c-0.127,0.155-0.256,0.307-0.388,0.458L548.508,149.675z M523.928,123.189l-4.135-5.609l0.453-0.327l4.037,5.68
								L523.928,123.189z M552.448,141.938l0.092-0.415l6.816,1.457c-0.04,0.186-0.081,0.373-0.125,0.558L552.448,141.938z
								 M531.961,119.83l-1.075-6.886c0.185-0.029,0.371-0.056,0.556-0.081l0.951,6.903L531.961,119.83z M552.35,133.244
								c-0.034-0.131-0.069-0.261-0.106-0.391l6.701-1.915c0.054,0.19,0.106,0.38,0.155,0.57L552.35,133.244z M540.622,120.593
								l2.25-6.596c0.189,0.065,0.376,0.131,0.564,0.201l-2.438,6.53C540.873,120.68,540.748,120.635,540.622,120.593z
								 M548.226,125.59l-0.283-0.305l5.057-4.796c0.133,0.141,0.265,0.282,0.394,0.425L548.226,125.59z"/>
						</g>
					</g>
					<g>
						<polyline style="fill:none;stroke:#000000;stroke-linecap:round;stroke-linejoin:round;stroke-miterlimit:10;" points="
							527.364,126.881 534.37,138.934 545.705,127.907 						"/>
						<path d="M536.415,139.48c-0.798,0.91-2.183,1.001-3.093,0.203c-0.91-0.798-1.001-2.183-0.203-3.093
							c0.798-0.91,2.183-1.001,3.093-0.203C537.122,137.185,537.213,138.57,536.415,139.48z"/>
					</g>
				</g>
				<path style="opacity:0.3;" d="M515.162,118.898c11.633-11.292,30.216-11.016,41.508,0.617c2.775,2.858,4.842,6.139,6.223,9.625
					c-1.309-4.367-3.638-8.499-7.033-11.996c-11.292-11.632-29.876-11.909-41.509-0.617c-8.774,8.517-11.079,21.181-6.84,31.883
					C504.467,138.252,507.028,126.795,515.162,118.898z"/>
			</g>
		</g>
		<g>
			<g>
				<g>
					<path style="fill:#407BFF;" d="M240.241,347.492c-25.497-28.277-39.538-64.835-39.538-102.939
						c0-69.81,47.097-130.964,114.531-148.715l-11.331,14.226l19.855,18.153c-52.74,13.882-89.573,61.721-89.573,116.336
						c0,29.807,10.981,58.402,30.922,80.518L240.241,347.492z"/>
				</g>
				<path style="fill:#407BFF;" d="M243.546,349.408c1.242-0.31,42.228,0,42.228,0l-20.667-24.337l-24.866,22.421L243.546,349.408z"
					/>
			</g>
			<g style="opacity:0.3;">
				<g>
					<path d="M240.241,347.492c-25.497-28.277-39.538-64.835-39.538-102.939c0-69.81,47.097-130.964,114.531-148.715l-11.331,14.226
						l19.855,18.153c-52.74,13.882-89.573,61.721-89.573,116.336c0,29.807,10.981,58.402,30.922,80.518L240.241,347.492z"/>
				</g>
				<path d="M243.546,349.408c1.242-0.31,42.228,0,42.228,0l-20.667-24.337l-24.866,22.421L243.546,349.408z"/>
			</g>
			<g>
				<g>
					<g>
						<path style="fill:#407BFF;" d="M546.132,403.89v-53.978c0-2.457,2.833-3.833,4.764-2.314l34.307,26.989
							c1.498,1.179,1.498,3.449,0,4.628l-34.307,26.989C548.965,407.724,546.132,406.348,546.132,403.89z"/>
					</g>
					<g>
						<rect x="361.008" y="360.856" style="fill:#407BFF;" width="190.689" height="32.09"/>
					</g>
				</g>
				<path style="opacity:0.3;" d="M584.903,374.587l-34.307-26.989c-1.932-1.52-4.765-0.144-4.765,2.314v10.944H352.894v32.09
					h192.938v10.944c0,2.457,2.833,3.833,4.765,2.314l34.307-26.989C586.402,378.037,586.402,375.766,584.903,374.587z"/>
				<path style="fill:#407BFF;" d="M352.851,90.872v32.893c65.16,0,118.172,53.012,118.172,118.172
					c0,65.16-53.012,118.172-118.172,118.172H141.735v32.893h211.116c83.297,0,151.064-67.767,151.064-151.065
					C503.915,158.639,436.148,90.872,352.851,90.872z"/>
				<path style="fill:#407BFF;" d="M359.243,80.439l-0.109,53.978c-0.005,2.457-2.841,3.828-4.769,2.304l-34.253-27.058
					c-1.496-1.182-1.491-3.452,0.009-4.628l34.361-26.92C356.418,76.6,359.248,77.982,359.243,80.439z"/>
			</g>
		</g>
		<path style="opacity:0.3;" d="M359.216,361.053c0.654,0-13.399,8.901-22.896,8.824l-0.897,24.014h-6.284l-12.013-32.09
			L359.216,361.053z"/>
		<g>
			<g>
				<g>
					<path style="fill:#263238;" d="M347.626,194.909c4.407,6.96,6.026,11.172,6.713,18.01c0.803,7.992,0.768,15.082-0.924,17.218
						c-2.22,2.802-27.461,6.507-41.696,6.59c-0.516,0.003-1.152-4.488-1.152-4.488s-1.811,4.499-2.48,4.5
						c-3.885,0.004-6.377-0.024-6.377-0.024s2.907-6.765,5.741-30.814c1.384-11.746,12.892-16.943,19.759-18.14
						C338.655,185.767,347.626,194.909,347.626,194.909z"/>
					<path style="fill:#263238;" d="M314.88,218.99c-4.018-6.259-8.512-23.42,6.736-29.486c19.034-7.572,28.269,4.364,30.5,16.512
						c2.231,12.147-4.234,21.706-17.059,21.372C322.231,227.054,317.659,223.319,314.88,218.99z"/>
					<g>
						<g>
							<g>
								<path style="fill:#EBB373;" d="M346.708,242.07c0,0-4.282,3.293-9.796,8.044c-1.148,0.99-2.413,1.846-3.752,2.557
									c-3.613,1.919-6.906,3.017-7.798,1.275c-0.198-0.383-0.351-0.798-0.464-1.233c-0.757-2.917-0.447-7.017,1.911-8.894
									c2.658-2.116,3.94-3.926,3.461-6.79c-0.252-1.624-0.839-3.3-1.526-4.928l2.092-2.446l10.941-11.042
									C341.504,225.985,340.945,238.067,346.708,242.07z"/>
							</g>
							<path style="opacity:0.2;" d="M330.359,237.657c3.009-1.786,6.311-4.885,5.915-8.424c-0.176-1.491-0.498-2.903-0.855-3.808
								l-6.112,8.092C329.809,234.821,329.992,235.683,330.359,237.657z"/>
							<path style="fill:#EBB373;" d="M344.875,206.766c-1.03,11.242-1.228,16.009-7.03,21.904
								c-8.726,8.866-22.15,5.884-24.461-5.259c-2.08-10.029-0.047-26.728,10.99-31.452
								C335.246,187.304,345.904,195.525,344.875,206.766z"/>
							<path style="fill:#263238;" d="M330.78,210.839c-0.063,1.132-0.759,2.064-1.554,2.08c-0.795,0.017-1.389-0.887-1.326-2.02
								c0.063-1.132,0.759-2.064,1.554-2.08C330.249,208.802,330.842,209.707,330.78,210.839z"/>
							<path style="fill:#263238;" d="M319.093,210.634c-0.063,1.081-0.747,1.97-1.528,1.987c-0.781,0.016-1.364-0.846-1.301-1.927
								c0.063-1.081,0.747-1.97,1.528-1.987C318.573,208.69,319.155,209.553,319.093,210.634z"/>
							<path style="fill:#263238;" d="M332.369,206.688c-0.154,0.031-0.314,0.004-0.443-0.087c-1.996-1.424-4.065-0.664-4.089-0.655
								c-0.307,0.113-0.635-0.02-0.729-0.308c-0.093-0.287,0.083-0.615,0.393-0.733c0.108-0.04,2.705-0.997,5.182,0.771
								c0.247,0.176,0.278,0.527,0.069,0.782C332.651,206.581,332.513,206.66,332.369,206.688z"/>
							<path style="fill:#263238;" d="M315.116,205.175c-0.124-0.058-0.223-0.16-0.269-0.294c-0.095-0.276,0.069-0.581,0.366-0.682
								c2.981-1.011,5.029,0.436,5.116,0.499c0.243,0.176,0.28,0.509,0.082,0.744c-0.197,0.235-0.552,0.283-0.795,0.109
								c-0.079-0.058-1.685-1.157-4.056-0.353C315.406,205.25,315.247,205.237,315.116,205.175z"/>
							<path style="fill:#263238;" d="M335.482,196.771c-3.576,3.756-1.798,17.943,8.242,19.796
								C355.29,213.845,346.156,185.561,335.482,196.771z"/>
							<path style="fill:#263238;" d="M322.056,221.134c0.915,1.409,2.016,4.138,2.016,4.138c0.265-0.055,0.531-0.11,0.792-0.179
								c3.579-0.838,4.963-2.409,5.411-3.896c0.242-0.815,0.195-1.612,0.073-2.242c-0.133-0.731-0.395-1.222-0.395-1.222
								c-1.632,1.578-4.908,2.615-6.681,3.097C322.531,221.038,322.056,221.134,322.056,221.134z"/>
							<path style="fill:#FFFFFF;" d="M323.272,220.829l0.626,1.205c3.369-0.797,5.634-1.81,6.45-3.079
								c-0.133-0.731-0.395-1.222-0.395-1.222C328.321,219.31,325.045,220.348,323.272,220.829z"/>
							<path style="fill:#DC5753;" d="M324.864,225.093c3.579-0.838,4.963-2.409,5.411-3.896c-1.208,0.333-2.629,0.868-3.79,1.718
								C325.595,223.561,325.124,224.347,324.864,225.093z"/>
							<path style="fill:#E4873E;" d="M322.244,209.844c0,0-2.118,5.067-4.327,7.547c1.438,1.39,4.004,0.659,4.004,0.659
								L322.244,209.844z"/>
						</g>
						<path style="fill:#263238;" d="M327.21,208.285l2.58,0.609C328.621,210.209,327.21,208.285,327.21,208.285z"/>
						<path style="fill:#263238;" d="M315.68,208.172l2.58,0.609C317.091,210.096,315.68,208.172,315.68,208.172z"/>
					</g>
					<path style="fill:#263238;" d="M324.451,189.548c-4.439,1.506-9.155,9.189-9.941,12.145c6.313,1.034,23.33-4.88,23.33-4.88
						s11.355,3.136,5.603-2.621C337.692,188.434,324.451,189.548,324.451,189.548z"/>
					<path style="fill:#EBB373;" d="M348.276,215.928c-1.328,2.305-3.485,3.753-5.464,4.249c-2.976,0.746-4.512-4.038-3.497-7.019
						c0.914-2.684,3.838-4.46,6.734-3.875C348.903,209.86,349.794,213.292,348.276,215.928z"/>
					<path style="fill:none;stroke:#263238;stroke-width:0.5;stroke-miterlimit:10;" d="M309.062,203.741
						c-0.633,4.949-1.276,9.942-2.945,14.644c-1.668,4.702-5.133,14.4-9.282,17.17"/>
				</g>
				<circle style="fill:#407BFF;" cx="344.005" cy="219.883" r="2.096"/>
				
					<path style="opacity:0.1;fill:none;stroke:#000000;stroke-width:0.5;stroke-linecap:round;stroke-linejoin:round;stroke-miterlimit:10;" d="
					M345.922,212.722c-0.992-0.28-2.107-0.079-2.939,0.528c-0.832,0.608-1.363,1.609-1.398,2.639"/>
			</g>
			<g>
				<path style="fill:#EBB373;" d="M258.266,314.454c0.559-1.55,4.555-6.739,6.684-8.674c2.129-1.935,9.66-6.166,9.66-6.166
					l6.362,6.023c0,0-0.597,3.451-3.152,4.718c-1.473,0.731-3.004,1.321-3.004,1.321s0.019,1.35-0.331,2.767
					c-0.388,1.57-1.197,3.422-2.472,3.035c-1.273-0.387-0.697-4.659-0.608-5.274c-0.094,0.623-0.813,4.963-2.576,4.675
					c-1.701-0.278-0.852-4.782-0.852-4.782s-0.61,2.044-0.93,3.087c-0.32,1.042-1.612,1.693-2.293,0.271
					c-0.79-1.648-0.295-4.023-0.295-4.023s-1.245,1.147-3.348,3.803C259.597,317.146,257.793,315.765,258.266,314.454z"/>
				
					<path style="opacity:0.1;fill:none;stroke:#000000;stroke-width:0.5;stroke-linecap:round;stroke-linejoin:round;stroke-miterlimit:10;" d="
					M271.259,313.012c0.163-0.808,0.328-1.621,0.638-2.384c0.31-0.763,0.778-1.483,1.446-1.965"/>
				
					<path style="opacity:0.1;fill:none;stroke:#000000;stroke-width:0.5;stroke-linecap:round;stroke-linejoin:round;stroke-miterlimit:10;" d="
					M267.742,312.72c0.163-0.808,0.327-1.621,0.638-2.385c0.31-0.763,0.778-1.483,1.446-1.965"/>
				
					<path style="opacity:0.1;fill:none;stroke:#000000;stroke-width:0.5;stroke-linecap:round;stroke-linejoin:round;stroke-miterlimit:10;" d="
					M264.456,311.574c0.163-0.808,0.327-1.621,0.638-2.384c0.31-0.763,0.778-1.483,1.446-1.965"/>
			</g>
			<g>
				<path style="fill:#EBB373;" d="M307.995,258.744c0,0.71-2.002,26.218-2.002,26.218c-1.419,2.661-30.634,12.801-34.373,16.513
					l6.815,7.012c0,0,34.759-7.012,40.371-11.092c4.788-3.481,4.385-9.588,4.385-17.927c0-8.339,2.91-19.99,2.91-19.99
					L307.995,258.744z"/>
				<path style="fill:#407BFF;" d="M321.226,243.672c-13.781,2.357-15.673,22.757-15.673,22.757l-2.094,16.199l-7.816,5.703
					l7.307,15.61c0,0,15.604-5.94,22.465-10c6.861-4.061,7.039-35.182,7.039-35.182L321.226,243.672z"/>
				<path style="opacity:0.2;" d="M318.753,296.409c0.257,0.116-5.774,3.479-5.774,3.479c-0.071,0.042-2.178-8.907-2.249-8.865
					c-3.32-14.998-1.075-26.951-1.075-26.951C312.172,269.305,318.116,292.025,318.753,296.409z"/>
			</g>
			<g>
				<path style="fill:#263238;" d="M321.782,314.867c11.485-1.147,26.426-2.064,45.87-2.502c0,0,14.497,34.145-2.694,44.346
					c-5.195,3.082-13.768,4.301-23.204,4.502c-10.948,0.233-19.971-8.541-19.971-19.492V314.867z"/>
				<path style="fill:#263238;" d="M359.333,342.99v16.043c-14.298,4.124-43.975,2.554-61.616,1.114
					c-7.944-0.649-14.053-7.284-14.053-15.255v-13.163c0-4.364,2.698-8.266,6.783-9.803c8.552-3.217,24.115-8.01,40.395-7.759
					C346.627,314.412,359.333,327.203,359.333,342.99z"/>
			</g>
			<g>
				<path style="fill:#407BFF;" d="M370.241,312.365c-2.222-2.932-7.367-9.944-8.019-17.323c-0.001-0.021-0.002-0.042-0.003-0.063
					c-0.04-0.474-0.064-0.948-0.065-1.424c-0.117-3.137-0.098-6.853,0.109-11.311c0.028-0.696,0.07-1.434,0.111-2.172
					c0.126-2.34,0.307-4.86,0.53-7.603c0.418-4.916,1.017-10.527,1.824-16.905c0.181-1.476,1.572-3.765,1.78-5.325
					c0.933-6.948-5.401-11.97-12.238-11.691c-1.824,0.07-3.76,0.195-5.723,0.39c-7.673,0.724-13.967,1.379-20.637,2.966
					c-2.214,0.515-4.498,1.142-6.684,1.769c-7.854,2.256-11.474,12.31-11.572,20.4c-0.097,7.54,5.191,22.93,8.813,36.447
					c0.533,7.754-3.702,11.977-2.427,14.68c1.275,2.703,38.756-4.641,54.2,4.568C370.241,319.767,372.612,315.494,370.241,312.365z"
					/>
				<path style="opacity:0.3;fill:#FFFFFF;" d="M370.241,312.365c-2.222-2.932-7.367-9.944-8.019-17.323
					c-0.001-0.021-0.002-0.042-0.003-0.063c-0.04-0.474-0.064-0.948-0.065-1.424c-0.117-3.137-0.098-6.853,0.109-11.311
					c0.028-0.696,0.07-1.434,0.111-2.172c0.126-2.34,0.307-4.86,0.53-7.603c0.418-4.916,1.017-10.527,1.824-16.905
					c0.181-1.476,1.572-3.765,1.78-5.325c0.933-6.948-5.401-11.97-12.238-11.691c-1.824,0.07-3.76,0.195-5.723,0.39
					c-7.673,0.724-13.967,1.379-20.637,2.966c-2.214,0.515-4.498,1.142-6.684,1.769c-7.854,2.256-11.474,12.31-11.572,20.4
					c-0.097,7.54,5.191,22.93,8.813,36.447c0.533,7.754-3.702,11.977-2.427,14.68c1.275,2.703,38.756-4.641,54.2,4.568
					C370.241,319.767,372.612,315.494,370.241,312.365z"/>
				<path style="opacity:0.2;" d="M364.271,302.568c0,0-13.227,2.905-19.382,3.185c-6.155,0.28-19.473,4.476-19.473,4.476
					l-4.737,2.938l-1.669-3.908l7.974-7.211l35.003-7.095C362.414,297.878,364.021,301.979,364.271,302.568z"/>
				<polygon style="opacity:0.2;" points="349.123,259.003 347.452,281.617 339.954,288.966 345.201,293.047 352.338,288.741 
					356.03,276.025 				"/>
			</g>
			<g>
				<g>
					<path style="fill:#263238;" d="M292.564,465.439l17.553-7.744l5.551-6.198l1.719,2.334l2.098-0.915
						c0.978-7.791-2.807-11.434-4.795-13.09c-0.142-0.126-0.347-0.268-0.583-0.457c-0.079-0.063-0.158-0.126-0.237-0.174
						c-0.032-0.016-0.063-0.047-0.094-0.063c-0.079-0.063-0.174-0.126-0.268-0.205c-0.015-0.016-0.031-0.016-0.063-0.031v-0.016
						c-0.047-0.032-0.094-0.063-0.158-0.095l-9.636,4.258c0,0-0.158,0.505-0.457,1.325c-0.962,2.712-3.343,8.895-5.977,12.191
						c-0.111,0.142-0.221,0.284-0.332,0.41c-0.315,0.378-0.647,0.71-0.978,0.978C288.526,463.877,292.564,465.439,292.564,465.439z"
						/>
					<path style="fill:#EBB373;" d="M296.848,456.923c2.745,1.072,6.624-1.64,9.573-5.189c1.656-2.003,3.249-5.205,4.652-7.791
						c0.915-1.672,1.751-3.091,2.476-3.769c0.41-0.363,0.789-0.521,1.12-0.363c0,0-0.016-0.016-0.016-0.032
						c-0.142-0.126-0.347-0.268-0.583-0.457c-0.063-0.048-0.142-0.111-0.237-0.174c-0.032-0.016-0.063-0.047-0.094-0.063
						c-0.079-0.063-0.174-0.126-0.268-0.205c-0.015-0.016-0.032-0.016-0.063-0.031v-0.016c-0.047-0.032-0.094-0.063-0.157-0.094
						c-1.009-0.757-2.129-1.53-2.129-1.53l-9.065,2.269l0.706,3.471c-1.009,3.58-3.138,10.393-5.583,13.563
						C297.068,456.655,296.958,456.797,296.848,456.923z"/>
				</g>
				<path style="fill:#EBB373;" d="M282.091,389.422c5.596,13.899,14.285,31.609,20.698,53.817c0.125,0.404,0.237,0.809,0.349,1.213
					c0.125,0.432,0.251,0.85,0.376,1.282l6.622-1.617l0.29-1.152c0,0,2.288-1.777,1.899-2.18c-0.254-0.262-0.083-0.753-0.126-1.171
					v-0.014c-1.784-15.488-8.657-72.339-15.474-84.147c0,0,7.723,1.436,13.578,0.446c4.224-0.711,9.34-29.917,9.34-29.917
					s-10.762-3.095-21.803-3.095h-0.153c0,0-21.703,6.42-27.221,11.282c-5.186,4.569-5.963,12.056-3.087,20.955
					C270.015,363.285,275.157,372.201,282.091,389.422z"/>
				<path style="opacity:0.1;" d="M275.889,341.194c1.285-5.05,10.583-9.99,20.189-12.638c1.56-2.021-2.431-4.409-2.431-4.409
					l18.908-1.711l3.3,2.375l5.642,1.175l-5.027,22.592l-20.656,3.617l13.067,60.638l1.544,11.981c0,0-22.132-47.507-26.762-57.609
					C279.034,357.104,273.662,349.95,275.889,341.194z"/>
				<path style="fill:#EBB373;" d="M319.646,325.987c0,0-29.507,6.251-35.271,10.804c-4.909,3.877-5.042,8.939-3.451,13.718
					c4.398,13.212,20.176,35.243,38.237,98.475l10.349-3.25c-0.992-0.001-3.593-33.014-4.361-59.53
					c-0.362-12.508-6.776-23.293-9.286-27.649c0,0,10.547,1.424,16.4,0.442C339.784,357.737,344.539,332.642,319.646,325.987z"/>
				<path style="opacity:0.2;" d="M316.471,359.741c0,0-3.915-6.493-8.796-9.231c0,0,6.007,0.392,9.761,8.235l-1.574-0.189
					L316.471,359.741z"/>
				<g>
					<path style="fill:#263238;" d="M333.022,459.349l-2.156,0.47l-1.792-2.982c-0.218-0.363-0.715-0.433-1.025-0.146l-6.129,5.677
						l-16.74,3.674c0,0-3.727-3.94,4.595-6.451c0.397-0.12,0.742-0.431,1.117-0.734c4.118-3.159,9.055-11.863,9.055-11.863
						l9.918-2.177c0,0,0.455,0.421,1.126,1.251C332.555,448.014,335.431,452.184,333.022,459.349z"/>
					<path style="fill:#EBB373;" d="M330.992,446.069c0.003,0.015,0.007,0.03,0.007,0.03c-1.63-1.172-6.183,6.547-10.069,9.688
						c-3.472,2.797-7.664,4.616-10.038,3.07c4.118-3.159,9.274-14.142,9.274-14.142l7.976-1.75
						C328.143,442.965,330.321,445.239,330.992,446.069z"/>
				</g>
			</g>
			<g>
				<g>
					<path style="fill:#263238;" d="M300.596,330.263l29.094-11.068c0.647-0.246,0.49-1.285-0.196-1.293l-46.692-0.559
						c-0.113-0.001-0.224,0.031-0.321,0.094l-17.954,11.627c-0.535,0.346-0.309,1.237,0.314,1.237h35.552
						C300.463,330.301,300.531,330.288,300.596,330.263z"/>
					<path style="opacity:0.7;fill:#FFFFFF;" d="M300.596,330.263l29.094-11.068c0.647-0.246,0.49-1.285-0.196-1.293l-46.692-0.559
						c-0.113-0.001-0.224,0.031-0.321,0.094l-17.954,11.627c-0.535,0.346-0.309,1.237,0.314,1.237h35.552
						C300.463,330.301,300.531,330.288,300.596,330.263z"/>
					<polygon style="opacity:0.7;fill:#FFFFFF;" points="300.701,326.965 319.462,320.048 297.484,319.589 					"/>
					<path style="opacity:0.3;" d="M329.69,319.196l-29.094,11.068c-0.065,0.025-0.134,0.037-0.203,0.037h-0.453l-0.547-1.604
						l30.101-10.795C330.18,317.911,330.338,318.95,329.69,319.196z"/>
				</g>
				<g>
					<path style="fill:#263238;" d="M262.618,330.301h37.879c0.654-0.004,1.179-0.433,1.174-0.958
						c-0.001-0.099-0.021-0.197-0.06-0.29l-16.851-38.632c-0.426-1.103-1.694-1.857-3.133-1.863h-37.903
						c-0.641,0-1.16,0.417-1.16,0.932c0,0.108,0.023,0.215,0.069,0.316l16.851,38.632
						C259.917,329.538,261.182,330.29,262.618,330.301z"/>
					<path style="opacity:0.7;fill:#FFFFFF;" d="M243.725,288.558h37.903c1.439,0.005,2.708,0.759,3.133,1.863l16.851,38.632
						c0.039,0.094,0.059,0.192,0.06,0.29c0.006,0.525-0.52,0.953-1.174,0.958h-37.879c-1.437-0.011-2.702-0.763-3.134-1.863
						l-16.851-38.632c-0.046-0.101-0.069-0.208-0.069-0.316C242.565,288.975,243.084,288.558,243.725,288.558z"/>
					<path style="fill:#FFFFFF;" d="M267.2,310.29c0.819,1.854,2.478,3.127,3.715,2.868c1.237-0.259,1.567-1.949,0.773-3.808
						c-0.795-1.859-2.473-3.103-3.71-2.844C266.741,306.765,266.371,308.387,267.2,310.29z"/>
				</g>
				<path style="opacity:0.3;" d="M281.402,288.558h0.225c1.439,0.005,2.708,0.759,3.133,1.863l16.851,38.632
					c0.039,0.094,0.059,0.192,0.06,0.29c0.006,0.525-0.52,0.953-1.174,0.958h-1.213L281.402,288.558z"/>
			</g>
			<g>
				<path style="fill:#EBB373;" d="M349.854,256.867c0,0.71,2.278,25.977,2.278,25.977c-1.419,2.661-30.634,12.801-34.373,16.513
					l6.815,7.012c0,0,34.759-7.012,40.371-11.092c4.788-3.481,4.385-9.588,4.385-17.927c0-8.339-1.823-20.483-1.823-20.483H349.854z
					"/>
				<path style="fill:#407BFF;" d="M352.801,241.276c-7.176,2.997-1.698,41.421-1.698,41.421l-7.064,2.989l4.341,16.36
					c0,0,8.699-1.651,17.392-3.424c9.189-1.874,10.536-23.087,5.937-40.266C367.11,241.178,361.196,237.77,352.801,241.276z"/>
				<g>
					<path style="fill:#EBB373;" d="M305.559,317.755c0.161-1.64,2.761-7.651,4.35-10.049c1.588-2.398,7.85-8.349,7.85-8.349
						l7.646,4.276c0,0,0.268,3.492-1.897,5.348c-1.249,1.07-2.587,2.018-2.587,2.018s0.35,1.304,0.358,2.763
						c0.009,1.617-0.32,3.612-1.651,3.549c-1.329-0.062-1.82-4.345-1.884-4.963c0.062,0.627,0.431,5.011-1.349,5.164
						c-1.717,0.148-2-4.427-2-4.427s-0.09,2.132-0.144,3.221c-0.054,1.089-1.147,2.037-2.156,0.826
						c-1.17-1.404-1.274-3.828-1.274-3.828s-0.925,1.418-2.312,4.508C307.511,320.037,305.423,319.141,305.559,317.755z"/>
					
						<path style="opacity:0.1;fill:none;stroke:#000000;stroke-width:0.5;stroke-linecap:round;stroke-linejoin:round;stroke-miterlimit:10;" d="
						M317.8,313.167c-0.04-0.823-0.08-1.652,0.033-2.468c0.113-0.816,0.39-1.628,0.92-2.26"/>
					
						<path style="opacity:0.1;fill:none;stroke:#000000;stroke-width:0.5;stroke-linecap:round;stroke-linejoin:round;stroke-miterlimit:10;" d="
						M314.32,313.746c-0.04-0.823-0.081-1.652,0.033-2.468c0.113-0.816,0.39-1.628,0.919-2.26"/>
					
						<path style="opacity:0.1;fill:none;stroke:#000000;stroke-width:0.5;stroke-linecap:round;stroke-linejoin:round;stroke-miterlimit:10;" d="
						M310.853,313.443c-0.04-0.823-0.081-1.652,0.033-2.468c0.113-0.816,0.39-1.628,0.919-2.26"/>
				</g>
			</g>
		</g>
	</g>
</g>
<g id="Light_Bulb">
	<g>
		<circle style="fill:#FFFFFF;stroke:#263238;stroke-miterlimit:10;" cx="106.993" cy="364.782" r="57.094"/>
		<g>
			<g>
				<path style="fill:#263238;" d="M117.811,401.272c0,3.729-5.185,6.719-11.49,6.618c-6.305-0.101-11.367-3.147-11.322-6.876
					c0.045-3.729,5.185-6.719,11.479-6.607S117.855,397.554,117.811,401.272z"/>
				<path style="fill:#263238;" d="M122.738,388.975c0.619-0.587,0.991-1.388,1.041-2.24c0-3.651-7.694-6.719-17.28-6.809
					c-9.586-0.09-17.392,2.766-17.437,6.417c0.038,0.846,0.394,1.645,0.997,2.24c-0.181,0.347-0.284,0.729-0.302,1.12
					c0.024,0.853,0.392,1.661,1.019,2.24c-0.203,0.363-0.315,0.771-0.325,1.187c0.025,0.86,0.406,1.672,1.053,2.24
					c-0.226,0.363-0.35,0.781-0.358,1.209c0.054,0.849,0.46,1.637,1.12,2.173c-0.237,0.364-0.368,0.786-0.381,1.221
					c0,3.035,6.395,5.599,14.368,5.667c7.974,0.067,14.458-2.24,14.491-5.342c-0.002-0.436-0.126-0.863-0.358-1.232
					c0.657-0.529,1.063-1.309,1.12-2.15c-0.004-0.424-0.116-0.84-0.325-1.21c0.649-0.545,1.052-1.328,1.12-2.173
					c-0.003-0.418-0.107-0.829-0.302-1.198c0.648-0.55,1.051-1.336,1.12-2.184C123.083,389.735,122.953,389.333,122.738,388.975z"/>
				<path style="opacity:0.3;fill:#FFFFFF;enable-background:new    ;" d="M122.738,388.975c0.619-0.587,0.991-1.388,1.041-2.24
					c0-3.651-7.694-6.719-17.28-6.809c-9.586-0.09-17.392,2.766-17.437,6.417c0.038,0.846,0.394,1.645,0.997,2.24
					c-0.181,0.347-0.284,0.729-0.302,1.12c0.024,0.853,0.392,1.661,1.019,2.24c-0.203,0.363-0.315,0.771-0.325,1.187
					c0.025,0.86,0.406,1.672,1.053,2.24c-0.226,0.363-0.35,0.781-0.358,1.209c0.054,0.849,0.46,1.637,1.12,2.173
					c-0.237,0.364-0.368,0.786-0.381,1.221c0,3.035,6.395,5.599,14.368,5.667c7.974,0.067,14.458-2.24,14.491-5.342
					c-0.002-0.436-0.126-0.863-0.358-1.232c0.657-0.529,1.063-1.309,1.12-2.15c-0.004-0.424-0.116-0.84-0.325-1.21
					c0.649-0.545,1.052-1.328,1.12-2.173c-0.003-0.418-0.107-0.829-0.302-1.198c0.648-0.55,1.051-1.336,1.12-2.184
					C123.083,389.735,122.953,389.333,122.738,388.975z"/>
				<path style="fill:#407BFF;" d="M137.117,356.723c0.199-16.964-13.391-30.878-30.355-31.077
					c-16.964-0.199-30.878,13.391-31.077,30.355c-0.108,9.206,3.918,17.975,10.971,23.892c1.298,1.07,1.978,2.716,1.814,4.39
					c-0.006,0.082-0.006,0.164,0,0.246c0,3.707,7.839,6.809,17.56,6.921c9.721,0.112,17.661-2.811,17.705-6.529
					c0-0.078,0-0.157,0-0.235c-0.151-1.71,0.569-3.381,1.915-4.446C132.797,374.51,137.004,365.882,137.117,356.723z"/>
				<path style="opacity:0.7;fill:#FFFFFF;enable-background:new    ;" d="M137.117,356.723
					c0.199-16.964-13.391-30.878-30.355-31.077c-16.964-0.199-30.878,13.391-31.077,30.355c-0.108,9.206,3.918,17.975,10.971,23.892
					c1.298,1.07,1.978,2.716,1.814,4.39c-0.006,0.082-0.006,0.164,0,0.246c0,3.707,7.839,6.809,17.56,6.921
					c9.721,0.112,17.661-2.811,17.705-6.529c0-0.078,0-0.157,0-0.235c-0.151-1.71,0.569-3.381,1.915-4.446
					C132.797,374.51,137.004,365.882,137.117,356.723z"/>
				<path style="opacity:0.2;fill:#FFFFFF;enable-background:new    ;" d="M122.672,338.883c0,5.98-6.999,10.841-15.678,10.841
					c-8.679,0-15.678-4.86-15.678-10.841c0-5.98,6.999-10.852,15.678-10.852C115.672,328.031,122.672,332.892,122.672,338.883z"/>
			</g>
			<path style="fill:none;stroke:#FFFFFF;stroke-linecap:round;stroke-linejoin:round;stroke-miterlimit:10;" d="M82.995,368.039
				c-2.673-4.584-3.735-10.086-2.961-15.335c0.775-5.249,3.382-10.21,7.265-13.826"/>
			<g>
				<path style="fill:#263238;" d="M92.215,398.824c8.867,3.733,19.108,3.856,28.063,0.341
					C111.457,402.988,100.941,402.859,92.215,398.824L92.215,398.824z"/>
			</g>
			<g>
				<path style="fill:#263238;" d="M92.006,395.527c8.867,3.733,19.108,3.855,28.063,0.341
					C111.248,399.691,100.732,399.562,92.006,395.527L92.006,395.527z"/>
			</g>
			<g>
				<path style="fill:#263238;" d="M91.798,392.23c8.867,3.732,19.108,3.855,28.063,0.341
					C111.039,396.395,100.524,396.266,91.798,392.23L91.798,392.23z"/>
			</g>
			<path style="fill:none;stroke:#263238;stroke-miterlimit:10;" d="M99.758,384.941c2.356-8.021,2.77-16.771,1.184-25.034
				c-0.256-1.336-0.859-2.945-2.058-2.975c-1.072-0.027-1.777,1.291-2.008,2.485c-0.818,4.222,1.371,8.51,4.17,11.426
				c1.516,1.579,3.353,2.955,5.404,3.056c2.058,0.101,4.023-1.118,5.513-2.74c2.852-3.105,4.272-7.968,3.239-12.306
				c-0.437-1.834-1.739-3.805-3.377-3.455c-0.987,0.211-1.709,1.254-1.963,2.361c-0.254,1.107-0.13,2.277,0.015,3.41
				c1.043,8.167,3.037,16.175,5.912,23.749"/>
		</g>
	</g>
</g>
<g id="Character_2_00000164471631664118870440000013567350606425697931_">
	<g>
		<g>
			<path style="fill:#263238;enable-background:new    ;" d="M422.526,410.165c0,0,98.635-23.108,103.326-2.564
				c6.697,29.326-64.469,49.054-102.374,47.846C385.574,454.239,422.526,410.165,422.526,410.165z"/>
			<path style="opacity:0.2;enable-background:new    ;" d="M422.526,410.165c0,0,98.635-23.108,103.326-2.564
				c6.697,29.326-64.469,49.054-102.374,47.846C385.574,454.239,422.526,410.165,422.526,410.165z"/>
			<path style="opacity:0.7;enable-background:new    ;" d="M493.488,413.94l-46.321,29.438l6.182,8.785
				c0,0-3.256,4.825-9.455-9.998l28.658-18.944c0,0-8.97-0.9-8.745-2.303c0.381-2.303,20.087-6.684,29.074-8.658
				c0.464-0.167,0.975,0.073,1.143,0.537C494.193,413.26,493.952,413.772,493.488,413.94z"/>
			<path style="opacity:0.7;enable-background:new    ;" d="M445.488,440.06l8.035,13.02c-9.909,1.73-19.972,2.523-30.044,2.366
				c-3.311-0.02-6.591-0.615-9.68-1.754l-2.823-5.162l6.078-12.226L445.488,440.06z"/>
			<g>
				<g>
					<g>
						<g>
							<g>
								<polygon style="fill:#B97964;" points="460.824,434.883 440.221,447.949 443.913,457.948 468.103,447.078 								"/>
							</g>
						</g>
					</g>
				</g>
				<g>
					<g>
						<g>
							<g>
								<g>
									<g>
										<g>
											<g>
												<g>
													<g>
														<g>
															<g>
																<path style="fill:#263238;" d="M428.88,451.298l2.022,7.192c0,0,1.519,0.32,1.992,1.833
																	c0.266,0.85-0.36,3.194-0.36,3.194l5.415,19.818c0.029-0.008,1.359-0.367,1.887-0.748
																	c0.643-0.464,1.165-0.94,1.583-1.422c1.463-1.691,1.624-4.14,1.679-5.954c0.091-3.041,1.839-11.924,1.839-11.924
																	s0.667-2.314,3.111-4.353c1.363-1.137,1.993-2.572,1.866-3.461c-0.257-1.813-1.559-2.493-3.254-2.289l-1.969,0.24
																	c-1.407-1.048-1.839-2.82-0.948-4.528c0,0,1.164-4.317-0.646-3.591c-1.033,0.415-5.581,2.444-9.222,3.94
																	c-0.848,0.349-1.652,0.678-2.356,0.967l0,0.002C429.954,450.855,428.88,451.298,428.88,451.298z"/>
															</g>
														</g>
													</g>
												</g>
											</g>
										</g>
										<g>
											<g>
												<g>
													<g>
														<path style="fill:#407BFF;" d="M444.176,468.023c0.056-0.111,0.026-0.25-0.067-0.336
															c-0.425-0.391-0.95-0.672-1.544-0.796c-0.313-0.065-0.456,0.437-0.14,0.503c0.528,0.11,0.991,0.355,1.363,0.696
															c0.124,0.114,0.31,0.086,0.385-0.063C444.175,468.026,444.176,468.025,444.176,468.023z"/>
													</g>
												</g>
											</g>
										</g>
										<g>
											<g>
												<g>
													<g>
														<path style="fill:#407BFF;" d="M444.581,466.269c0.056-0.111,0.026-0.25-0.067-0.336
															c-0.426-0.391-0.95-0.672-1.544-0.796c-0.313-0.065-0.456,0.437-0.14,0.504c0.527,0.11,0.99,0.355,1.363,0.696
															c0.125,0.114,0.31,0.086,0.385-0.063C444.58,466.272,444.581,466.271,444.581,466.269z"/>
													</g>
												</g>
											</g>
										</g>
										<g>
											<g>
												<g>
													<g>
														<path style="fill:#407BFF;" d="M444.917,464.483c0.056-0.111,0.026-0.25-0.067-0.336
															c-0.425-0.391-0.95-0.672-1.544-0.796c-0.313-0.065-0.456,0.437-0.14,0.504c0.528,0.11,0.99,0.355,1.363,0.696
															c0.125,0.114,0.31,0.086,0.385-0.063C444.916,464.486,444.917,464.484,444.917,464.483z"/>
													</g>
												</g>
											</g>
										</g>
									</g>
								</g>
							</g>
						</g>
					</g>
				</g>
				<g>
					<path style="opacity:0.2;fill:#FFFFFF;enable-background:new    ;" d="M431.518,450.211l0,0.002
						c-1.564,0.642-2.638,1.084-2.638,1.084l2.022,7.192c0,0,1.519,0.32,1.992,1.833c0.266,0.85-0.36,3.194-0.36,3.194l5.415,19.818
						c0.029-0.008,1.359-0.367,1.887-0.748c0.296-0.213,0.559-0.429,0.805-0.647l-8.729-31.889
						C431.782,450.103,431.641,450.161,431.518,450.211z"/>
				</g>
				<path style="fill:none;stroke:#407BFF;stroke-width:0.25;stroke-miterlimit:10;" d="M444.638,464.362
					c0.671-0.248,1.346-0.497,2.05-0.624c0.704-0.127,1.445-0.126,2.118,0.119c0.313,0.114,0.637,0.318,0.704,0.644
					c0.071,0.342-0.174,0.675-0.458,0.878c-0.547,0.391-1.268,0.486-1.929,0.361C446.462,465.615,445.185,464.753,444.638,464.362"
					/>
				<path style="fill:none;stroke:#407BFF;stroke-width:0.25;stroke-miterlimit:10;" d="M444.615,464.278
					c0.561-0.444,1.124-0.892,1.599-1.427c0.474-0.535,0.859-1.169,0.999-1.871c0.065-0.326,0.059-0.709-0.184-0.936
					c-0.255-0.239-0.667-0.202-0.988-0.065c-0.618,0.264-1.075,0.831-1.311,1.46C444.493,462.068,444.565,463.607,444.615,464.278"
					/>
			</g>
		</g>
		<path style="fill:#B97964;" d="M463.278,347.408c0,0,3.602,32.069,4.565,33.789c3.255,5.818,24.821,15.794,24.821,15.794
			l10.996-2.303l7.879,6.58l-5.195,4.069l-6.095-2.303c-3.326,0.594-6.699,0.889-10.078,0.883c-5.68,0-33.069-6.942-37.641-14.578
			c-4.572-7.637-6.672-42.998-6.672-42.998L463.278,347.408z"/>
		<g>
			<path style="fill:#407BFF;" d="M445.391,360.013c0,0-8.45-28.163,2.078-35.982c10.528-7.819,18.901,30.903,18.901,30.903
				L445.391,360.013z"/>
			<path style="opacity:0.5;fill:#FFFFFF;" d="M445.391,360.013c0,0-8.45-28.163,2.078-35.982
				c10.528-7.819,18.901,30.903,18.901,30.903L445.391,360.013z"/>
			<path style="fill:#407BFF;" d="M452.059,411.526l-0.082-37.328l-0.802-51.111l-22.055-4.784l-19.194-0.847l-21.841,9.994
				l-0.51,12.541c0,0,2.498,57.588,2.358,59.324c-0.172,2.128-6.367,15.486-6.367,15.486
				C411.159,421.089,452.493,413.429,452.059,411.526z"/>
			<path style="opacity:0.5;fill:#FFFFFF;" d="M452.059,411.526l-0.082-37.328l-0.802-51.111l-22.055-4.784l-19.194-0.847
				l-21.841,9.994l-0.51,12.541c0,0,2.498,57.588,2.358,59.324c-0.172,2.128-6.367,15.486-6.367,15.486
				C411.159,421.089,452.493,413.429,452.059,411.526z"/>
			<g>
				<g>
					<path style="fill:#263238;" d="M450.023,287.382c1.211-0.116,2.25-1.21,2.304-2.425c0.054-1.215-0.885-2.397-2.081-2.619
						l-5.655-0.567c0.269,3.63,0.538,7.26,0.807,10.889c1.094,0.282,2.272,0.339,3.341-0.027c1.069-0.367,2.009-1.2,2.331-2.283
						C451.394,289.268,450.993,287.963,450.023,287.382z"/>
				</g>
				<g>
					<path style="fill:#B97964;" d="M428.416,308.316l-12.15-15.289c0,0-0.005,0.012-0.008,0.053
						c-0.003,1.445-0.049,3.097-0.168,4.859c-0.005,0.012-1.305-0.624-1.31-0.612c-0.52,7.944-3.661,21.495-3.516,22.667
						l12.768,6.344h2.565l0.209-7.493C425.523,315.61,426.733,311.838,428.416,308.316z"/>
					<path style="opacity:0.2;" d="M426.597,313.473l-7.685-6.074c-0.191,3.091,1.424,7.948,7.587,10.473
						C426.135,316.013,426.257,314.695,426.597,313.473z"/>
				</g>
				<g>
					<path style="fill:#B97964;" d="M418.86,285.448c-2.515,10.289-3.462,15.23,0.053,21.951
						c5.286,10.11,18.199,10.197,23.752,0.839c4.999-8.423,8.271-23.832-0.413-30.83C433.696,270.514,421.374,275.16,418.86,285.448
						z"/>
					<path style="fill:#263238;" d="M421.031,271.484c3.113-5.133,11.264-5.966,14.276-1.914c0.45,0.605-4.419,0.752-3.862,0.725
						l-2.854,8.105c-0.557-0.319-1.951,0.016-3.138,1.687c0,0-1.836,11.15-7.613,14.269
						C412.166,286.528,412.814,271.499,421.031,271.484z"/>
					<path style="fill:#B97964;" d="M412.259,292.626c0,2.85,1.325,5.424,3.019,7.041c2.548,2.432,5.506,0.551,6.208-2.718
						c0.632-2.943,0.068-7.754-3.168-8.948C415.13,286.826,412.259,289.368,412.259,292.626z"/>
					<path style="fill:#263238;" d="M432.791,294.07c-0.321,1.033-0.031,2.035,0.647,2.239c0.678,0.203,1.488-0.469,1.809-1.502
						c0.321-1.033,0.031-2.035-0.647-2.239C433.922,292.364,433.112,293.037,432.791,294.07z"/>
					<path style="fill:#263238;" d="M442.924,297.362c-0.321,1.033-0.031,2.035,0.647,2.239c0.678,0.203,1.488-0.469,1.81-1.503
						c0.321-1.033,0.031-2.036-0.647-2.239C444.055,295.657,443.245,296.329,442.924,297.362z"/>
					<path style="fill:#A24E3F;" d="M439.357,294.602c0,0,1.284,4.708,1.872,7.503c0.141,0.669-0.359,1.321-1.042,1.34
						c-1.489,0.04-2.886-0.794-2.886-0.794L439.357,294.602z"/>
					<path style="fill:#263238;" d="M431.711,287.872c0.136,0.112,0.328,0.15,0.506,0.083c2.122-0.8,3.647,0.274,3.662,0.285
						c0.227,0.164,0.545,0.114,0.711-0.111c0.166-0.225,0.115-0.54-0.11-0.704c-0.08-0.058-1.99-1.404-4.622-0.411
						c-0.263,0.099-0.395,0.39-0.296,0.65C431.594,287.748,431.646,287.818,431.711,287.872z"/>
					<path style="fill:#263238;" d="M448.301,292.662c0.095-0.014,0.187-0.055,0.265-0.125c0.209-0.187,0.229-0.508,0.045-0.716
						c-1.852-2.09-4.153-1.74-4.259-1.737c-0.276,0.044-0.467,0.303-0.427,0.579c0.04,0.276,0.295,0.464,0.569,0.424
						c0.095-0.018,1.872-0.266,3.358,1.412C447.969,292.63,448.14,292.685,448.301,292.662z"/>
				</g>
				<g>
					<path style="fill:#263238;" d="M431.939,304.756c0.353,0.289,0.731,0.545,1.13,0.766c0.129,0.069,0.289,0.034,0.379-0.082l0,0
						c0.059-0.139,0.004-0.3-0.126-0.375c-2.065-1.109-3.476-3.138-3.798-5.46c-0.017-0.144-0.141-0.252-0.287-0.247
						c-0.132-0.007-0.245,0.095-0.251,0.227c-0.001,0.02,0,0.04,0.005,0.06C429.234,301.68,430.299,303.527,431.939,304.756z"/>
				</g>
				<g>
					<path style="fill:#263238;" d="M455.124,279.708c-0.692-2.055-3.139-2.918-5.302-3.073c1.357-0.026,2.424-1.403,2.427-2.76
						c0.003-1.357-0.837-2.602-1.905-3.44c-1.907-1.497-4.626-1.886-6.876-0.982c0.426-0.206,0.579-0.773,0.442-1.226
						c-0.137-0.453-0.493-0.805-0.869-1.092c-2.29-1.749-5.837-1.574-7.943,0.392c-0.736-2.49-3.619-4.119-6.131-3.464
						c-2.45,0.638-7.067,1.13-7.781,7.401c-2.077-1.477-5.301-1.163-6.944,0.822c-1.776,2.145-1.316,5.761,0.941,7.392
						c-1.12-0.472-2.512,0.255-2.973,1.38c-0.461,1.124-0.104,2.47,0.677,3.401c0.781,0.93,1.923,1.494,3.092,1.827
						c1.101,0.314,2.291,0.442,3.384,0.103c1.093-0.339,2.066-1.216,2.284-2.339c0.185,1.178,1.422,2.052,2.608,1.927
						c1.186-0.125,2.185-1.153,2.38-2.329c0.194-1.177-0.367-2.418-1.316-3.14c1.349,1.307,3.96,0.793,4.712-0.929
						c1,1.92,2.426,3.732,4.414,4.589c1.988,0.857,4.607,0.496,5.878-1.256c0.646,0.752,1.305,1.516,2.14,2.05
						c0.835,0.534,1.889,0.814,2.833,0.512c0.945-0.302,1.687-1.301,1.487-2.272c1.562,1.302,3.761,1.978,5.684,1.318
						C454.391,283.858,455.773,281.635,455.124,279.708z"/>
				</g>
			</g>
			<path style="fill:#407BFF;" d="M420.807,325.729c0,0,5.355,4.768,8.096-1.395l1.428,1.112c0,0-0.139,4.585-2.736,6.118
				c0.63,2.544,11.501,39.567,13.447,58.227l-2.972,7.566l-7.894-6.231c0,0-3.832-32.014-5.144-59.212
				c-3.161-1.071-5.662-3.442-6.823-6.468L420.807,325.729z"/>
			<polygon style="opacity:0.2;" points="427.715,326.351 432.356,329.961 433.115,319.126 431.641,318.811 430.415,326.114 
				428.208,324.831 			"/>
			<path style="opacity:0.2;" d="M405.352,319.549c-0.078,0.036,10.929,13.457,10.929,13.457l3.736-2.845l2.569-2.176l0.667-0.82
				l-14.569-10.12c0,0-1.953,1.994-2.154,1.994S405.352,319.549,405.352,319.549z"/>
			<polygon style="fill:#407BFF;" points="406.135,319.321 411.459,314.568 426.029,328.208 422.218,326.859 416.667,331.125 			"/>
			<path style="fill:#407BFF;" d="M426.029,328.208c-0.323-0.616,0.315-12.763,0.315-12.763l6.013,3.286
				c-0.274-0.056-0.455,10.242-0.621,10.242c-0.167,0-3.42-3.517-3.42-3.517L426.029,328.208z"/>
			<path style="fill:#263238;" d="M423.054,331.028"/>
			<polygon style="opacity:0.2;" points="451.667,358.493 450.539,334.42 455.923,357.463 			"/>
			<path style="opacity:0.2;" d="M404.975,362c0.68-0.133,4.119-1.26,4.119-1.26l-7.645-21.269L411.945,363l-6.31,2.511L404.975,362
				z"/>
			<polygon style="opacity:0.5;fill:#FFFFFF;" points="406.135,319.321 411.459,314.568 426.029,328.208 422.218,326.859 
				416.667,331.125 			"/>
			<path style="opacity:0.5;fill:#FFFFFF;" d="M426.029,328.208c-0.323-0.616,0.315-12.763,0.315-12.763l6.013,3.286
				c-0.274-0.056-0.455,10.242-0.621,10.242c-0.167,0-3.42-3.517-3.42-3.517L426.029,328.208z"/>
			<polygon style="opacity:0.3;fill:#FFFFFF;" points="434.291,348.115 436.736,360.125 443.856,362.705 448.673,358.505 
				447.792,347.163 			"/>
			<path style="fill:#407BFF;" d="M426.894,327.166l-2.254,0.55c-0.007-0.003-0.086,0.142-0.031,0.052
				c0.031-0.052-1.233,4.27-1.233,4.27c0.364,0.322,1.576,2.416,1.716,2.382c0.14-0.034,3.133-0.312,3.133-0.312l1.086-3.169
				C429.311,330.938,426.876,327.139,426.894,327.166z"/>
			<path style="opacity:0.2;" d="M426.894,327.166l-2.254,0.55c-0.007-0.003-0.086,0.142-0.031,0.052
				c0.031-0.052-1.233,4.27-1.233,4.27c0.364,0.322,1.576,2.416,1.716,2.382c0.14-0.034,3.133-0.312,3.133-0.312l1.086-3.169
				C429.311,330.938,426.876,327.139,426.894,327.166z"/>
		</g>
		<g>
			<path style="fill:#B97964;" d="M402.02,344.361c0,0,5.351,35.603,8.441,38.931c5.222,5.624,31.092,20.547,31.092,20.547
				l12.912-4.527c0.905-0.297,1.906-0.135,2.645,0.43l8.828,6.738l-0.843,0.711c-0.364,0.307-0.891,0.369-1.321,0.156l-1.372-0.683
				l1.534,1.504l-0.486,0.41c-0.483,0.408-1.154,0.554-1.775,0.388l-3.948-1.059l3.643,2.425c-0.813,0.686-1.945,0.924-2.984,0.627
				l-5.775-1.646c-3.938,0.901-7.951,1.476-11.991,1.718c-6.8,0.419-38.913-10.802-44.898-19.017
				c-5.985-8.215-12.157-42.326-12.157-42.326L402.02,344.361z"/>
			<g>
				<path style="fill:#407BFF;" d="M384.933,368.046c0,0-8.002-32.267,2.526-40.086c10.528-7.819,20.956,33.002,20.956,33.002
					L384.933,368.046z"/>
				<path style="opacity:0.5;fill:#FFFFFF;" d="M384.933,368.046c0,0-8.002-32.267,2.526-40.086
					c10.528-7.819,20.956,33.002,20.956,33.002L384.933,368.046z"/>
			</g>
		</g>
		<g>
			<g>
				<path style="fill:#263238;" d="M471.109,409.06h-19.86h-21.073c0,0.005,0,0.009,0,0.013c0.01,1.563,1.756,2.824,3.898,2.816
					h21.055h12.044c0.018,0,0.037,0,0.056,0c0.001,0,0.002,0,0.003,0h33.519c2.125-0.015,3.835-1.28,3.825-2.83H471.109z"/>
			</g>
			<path style="fill:#263238;" d="M501.365,411.73H463.97c-0.645-0.004-1.164-0.428-1.159-0.946
				c0.001-0.097,0.021-0.194,0.059-0.286l16.635-38.138c0.42-1.089,1.673-1.834,3.093-1.839h37.418c0.633,0,1.146,0.412,1.145,0.92
				c0,0.106-0.023,0.212-0.068,0.312l-16.635,38.138C504.031,410.977,502.783,411.719,501.365,411.73z"/>
			<path style="opacity:0.7;fill:#FFFFFF;enable-background:new    ;" d="M520.016,370.521h-37.417
				c-1.421,0.005-2.673,0.75-3.093,1.839l-16.008,36.7h-12.248h-21.073c0,0.004,0,0.009,0,0.013c0.01,1.563,1.756,2.824,3.898,2.816
				h21.055h12.044c0.018,0,0.037,0,0.056,0c0.001,0,0.002,0,0.003,0h33.519c0.674-0.005,1.297-0.146,1.845-0.371
				c0.87-0.293,1.566-0.874,1.861-1.627l16.635-38.138c0.045-0.1,0.068-0.206,0.068-0.312
				C521.162,370.933,520.649,370.521,520.016,370.521z"/>
			<path style="fill:#FFFFFF;" d="M497.544,390.825c-0.808,1.83-2.446,3.087-3.667,2.831c-1.221-0.256-1.547-1.924-0.763-3.759
				s2.441-3.063,3.662-2.807C497.998,387.346,498.362,388.947,497.544,390.825z"/>
			<g style="opacity:0.3;">
				
					<line style="fill:none;stroke:#000000;stroke-width:0;stroke-linecap:round;stroke-linejoin:round;" x1="462.811" y1="409.06" x2="463.497" y2="409.06"/>
				<path d="M479.505,372.36l-16.008,36.7h1.733l17.368-38.539C481.178,370.526,479.925,371.271,479.505,372.36z"/>
			</g>
		</g>
		<g>
			<g>
				<g>
					<g>
						<g>
							<g>
								<polygon style="fill:#B97964;" points="481.437,451.36 505.523,455.237 509.388,445.303 484.072,437.405 								"/>
							</g>
						</g>
					</g>
				</g>
				<g>
					<g>
						<g>
							<g>
								<g>
									<g>
										<g>
											<g>
												<g>
													<g>
														<g>
															<g>
																<path style="fill:#263238;" d="M516.234,460.248l3.253-6.725c0,0-0.925-1.246-0.276-2.693
																	c0.365-0.813,2.387-2.153,2.387-2.153l9.085-18.427c-0.027-0.013-1.261-0.626-1.908-0.691
																	c-0.789-0.079-1.495-0.069-2.128,0.015c-2.216,0.296-3.961,2.023-5.204,3.345c-2.085,2.216-9.282,7.708-9.282,7.708
																	s-2.033,1.291-5.214,1.197c-1.774-0.052-3.197,0.605-3.691,1.354c-1.01,1.527-0.486,2.9,0.919,3.871l1.633,1.125
																	c0.358,1.718-0.493,3.33-2.292,4.018c0,0-3.734,2.46-1.897,3.116c1.048,0.374,5.799,1.87,9.516,3.165
																	c0.867,0.301,1.686,0.587,2.405,0.838l0.001-0.002C515.136,459.868,516.234,460.248,516.234,460.248z"/>
															</g>
														</g>
													</g>
												</g>
											</g>
										</g>
										<g>
											<g>
												<g>
													<g>
														<path style="fill:#407BFF;" d="M515.87,437.586c-0.115,0.047-0.185,0.17-0.172,0.296
															c0.06,0.575,0.266,1.133,0.628,1.619c0.191,0.257,0.631-0.025,0.438-0.284c-0.322-0.432-0.506-0.922-0.559-1.425
															c-0.018-0.168-0.175-0.27-0.33-0.208C515.874,437.585,515.872,437.585,515.87,437.586z"/>
													</g>
												</g>
											</g>
										</g>
										<g>
											<g>
												<g>
													<g>
														<path style="fill:#407BFF;" d="M514.404,438.631c-0.115,0.046-0.185,0.17-0.172,0.296
															c0.06,0.575,0.266,1.133,0.628,1.619c0.191,0.256,0.631-0.025,0.438-0.284c-0.322-0.432-0.506-0.922-0.559-1.425
															c-0.018-0.168-0.175-0.27-0.33-0.208C514.408,438.629,514.406,438.63,514.404,438.631z"/>
													</g>
												</g>
											</g>
										</g>
										<g>
											<g>
												<g>
													<g>
														<path style="fill:#407BFF;" d="M512.968,439.745c-0.115,0.046-0.186,0.17-0.172,0.296
															c0.059,0.575,0.266,1.133,0.628,1.619c0.191,0.256,0.631-0.025,0.438-0.284c-0.322-0.432-0.506-0.922-0.559-1.425
															c-0.018-0.168-0.175-0.27-0.33-0.208C512.972,439.744,512.97,439.744,512.968,439.745z"/>
													</g>
												</g>
											</g>
										</g>
									</g>
								</g>
							</g>
						</g>
					</g>
				</g>
				<path style="opacity:0.2;fill:#FFFFFF;enable-background:new    ;" d="M519.212,450.831c0.365-0.813,2.387-2.152,2.387-2.152
					l9.085-18.427c-0.027-0.013-1.261-0.626-1.908-0.691c-0.363-0.036-0.703-0.049-1.031-0.049l-14.606,29.661
					c0.132,0.046,0.275,0.096,0.401,0.14l0.001-0.001c1.596,0.557,2.694,0.937,2.694,0.937l3.253-6.725
					C519.487,453.523,518.563,452.277,519.212,450.831z"/>
				<path style="fill:none;stroke:#407BFF;stroke-width:0.25;stroke-miterlimit:10;" d="M513.098,440.021
					c-0.667-0.259-1.337-0.52-1.949-0.892c-0.611-0.372-1.165-0.864-1.506-1.493c-0.159-0.293-0.266-0.66-0.1-0.949
					c0.174-0.303,0.578-0.39,0.925-0.354c0.669,0.07,1.272,0.477,1.683,1.009C512.562,437.874,512.948,439.366,513.098,440.021"/>
				<path style="fill:none;stroke:#407BFF;stroke-width:0.25;stroke-miterlimit:10;" d="M513.059,440.099
					c-0.714-0.039-1.433-0.078-2.143,0.009c-0.71,0.087-1.418,0.306-1.988,0.738c-0.265,0.201-0.515,0.492-0.483,0.823
					c0.033,0.348,0.365,0.593,0.697,0.704c0.638,0.212,1.355,0.091,1.949-0.224C511.686,441.834,512.652,440.634,513.059,440.099"/>
			</g>
			<path style="fill:#263238;" d="M390.925,440.377c-5.195-8.272-16.936-30.693,6.891-35.061
				c23.827-4.368,103.435,33.464,103.435,33.464l-5.044,15.193l-74.096-11.68c0,0,10.139,13.535-2.158,12.918
				C402.065,453.441,397.771,449.162,390.925,440.377z"/>
			<path style="opacity:0.7;enable-background:new    ;" d="M423.869,442.7l-20.328-6.396c0,0,17.053,10.433,23.309,11.674
				L423.869,442.7z"/>
		</g>
	</g>
</g>
</svg>
